<svg 
 xmlns="http://www.w3.org/2000/svg"
 xmlns:xlink="http://www.w3.org/1999/xlink"
 width="58px" height="58px">
<path fill-rule="evenodd"  fill="rgb(173, 209, 54)"
 d="M57.033,17.397 C56.499,17.397 56.067,16.965 56.067,16.432 L56.067,3.452 L45.286,14.232 C46.122,15.141 46.889,16.114 47.588,17.137 L47.606,17.119 C47.755,17.334 47.887,17.564 48.029,17.784 C48.064,17.840 48.099,17.894 48.134,17.950 C50.694,21.987 52.197,26.760 52.197,31.893 C52.197,46.311 40.512,57.999 26.098,57.999 C11.685,57.999 -0.000,46.311 -0.000,31.893 C-0.000,17.476 11.685,5.789 26.098,5.789 C31.563,5.789 36.631,7.475 40.823,10.345 L39.442,11.726 C35.622,9.199 31.040,7.720 26.098,7.720 C12.715,7.720 1.934,18.504 1.934,31.893 C1.934,32.240 1.972,32.579 1.986,32.925 C6.048,28.863 14.011,20.899 14.011,20.899 C14.389,20.521 15.001,20.521 15.378,20.899 L25.631,31.151 L54.852,1.931 L41.567,1.931 C41.033,1.931 40.600,1.498 40.600,0.965 C40.600,0.431 41.033,-0.001 41.567,-0.001 L57.033,-0.001 C57.567,-0.001 58.000,0.431 58.000,0.965 L58.000,16.432 C58.000,16.965 57.567,17.397 57.033,17.397 Z"/>
</svg>